<svg width="199" height="55" viewBox="0 0 199 55" fill="none" xmlns="http://www.w3.org/2000/svg">
<rect width="199" height="55" rx="10" fill="#473E3E"/>
<path d="M48.1905 43.907H47.3698C46.7145 43.907 46.0408 43.7355 45.3365 43.3926C44.6384 43.0496 44.1852 42.6393 43.9769 42.1616L31.4404 8.41033L29.4377 9.48822L17.2625 42.1616C17.0972 42.6393 16.6379 43.0496 15.9029 43.3926C15.168 43.7355 14.4576 43.907 13.7717 43.907H13V44.8318H23.1235V43.907H22.3519C21.6292 43.907 20.931 43.7294 20.2451 43.3681C19.5592 43.0067 19.302 42.5535 19.4734 42.0085L22.6581 33.3242H37.7607L41.0985 42.4678C41.2394 42.8781 40.9576 43.2211 40.2533 43.4967C39.549 43.7723 38.8386 43.907 38.1221 43.907H37.4545V44.8318H48.1905V43.907ZM37.1973 31.787H23.2215L30.2645 12.777L37.1973 31.787ZM64.6037 20.61C64.0342 20.3222 63.3237 20.1752 62.4724 20.1752C60.9965 20.1752 59.7655 20.6039 58.7733 21.4613C57.7812 22.3126 57.0402 23.3599 56.5625 24.5908V20.6345H55.5887L51.1669 22.4351L51.4241 23.2557C52.1774 22.9128 52.7592 22.7413 53.1696 22.7413C53.684 22.7413 53.9412 22.9985 53.9412 23.513V42.5229C53.9412 43.0312 53.6779 43.411 53.1451 43.6498C52.6184 43.8887 51.9753 44.0111 51.222 44.0111H50.4994V44.8318H59.9553V44.0111H59.2878C58.5345 44.0111 57.8914 43.8887 57.3586 43.6498C56.8258 43.411 56.5625 43.0312 56.5625 42.5229V29.8333C56.5992 27.3652 57.0953 25.4238 58.0507 24.0029C59.0122 22.5821 60.2983 21.8716 61.9029 21.8716C62.2459 21.8716 62.5031 21.9268 62.6746 22.0492C62.846 22.1717 62.9991 22.331 63.14 22.5392C63.2747 22.7413 63.4095 22.8944 63.5503 22.9985C63.6851 23.1026 63.9117 23.1516 64.2179 23.1516C64.5915 23.1516 64.8916 23.0353 65.1182 22.7964C65.3386 22.5576 65.4489 22.2268 65.4489 21.8165C65.4489 21.3021 65.1672 20.904 64.6037 20.61ZM83.5341 40.8755H82.0948C81.954 41.935 81.5008 42.725 80.7352 43.2395C79.9636 43.7539 79.0633 44.0111 78.0344 44.0111C76.6319 44.0111 75.6153 43.5824 74.9784 42.725C74.3476 41.8676 74.0291 40.5019 74.0291 38.6156V22.0737H81.3232V20.6896H74.0291V13.959H73.1043L71.3589 16.323V20.6896H66.9371V22.0737H71.3589V38.7687C71.3589 41.096 71.8856 42.774 72.9512 43.8029C74.0107 44.8318 75.6582 45.3462 77.8813 45.3462C79.3205 45.3462 80.5883 44.9788 81.6845 44.2439C82.7808 43.5028 83.3932 42.3821 83.5341 40.8755ZM90.9568 40.5448C93.7434 43.7417 97.6752 45.3462 102.746 45.3462C105.961 45.3462 108.589 44.9665 110.628 44.2132C112.668 43.46 114.438 42.4494 115.944 41.1817V31.9401C115.944 30.7397 116.011 29.8394 116.152 29.2392C116.287 28.639 116.538 28.2226 116.893 27.9837C117.255 27.7449 117.794 27.6224 118.516 27.6224H118.927V26.7527H108.191V27.6224H108.858C111.835 27.6224 113.329 28.4982 113.329 30.2436V40.7224C112.092 41.886 110.555 42.7005 108.705 43.1599C106.856 43.6253 105.055 43.858 103.31 43.858C98.6857 43.858 95.2377 42.3208 92.9594 39.2587C90.6812 36.1904 89.5421 32.0564 89.5421 26.8507C89.5421 21.7185 90.7608 17.6091 93.1922 14.5224C95.6235 11.4419 99.1328 9.89855 103.72 9.89855C106.629 9.89855 109.06 10.6273 111.014 12.0849C112.968 13.5364 114.064 15.4656 114.303 17.8602H115.228V8.61856H113.941V11.1847C113.941 11.6624 113.825 11.9012 113.58 11.9012C113.482 11.9012 113.372 11.8461 113.249 11.7236C113.127 11.6072 113.035 11.5276 112.968 11.4909C111.731 10.6028 110.383 9.85567 108.907 9.26161C107.437 8.66143 105.606 8.36134 103.414 8.36134C99.9902 8.36134 97.026 9.07788 94.5273 10.5171C92.0224 11.9563 90.1055 14.0631 88.7704 16.8374C87.4353 19.6118 86.7677 22.9495 86.7677 26.8507C86.7677 32.7791 88.1641 37.3417 90.9568 40.5448ZM124.194 42.0085C126.331 44.2316 129.234 45.3462 132.896 45.3462C136.565 45.3462 139.455 44.2316 141.581 42.0085C143.7 39.7792 144.765 36.6987 144.765 32.7607C144.765 28.8228 143.7 25.7422 141.581 23.513C139.455 21.2898 136.565 20.1752 132.896 20.1752C129.234 20.1752 126.331 21.2898 124.194 23.513C122.05 25.7422 120.978 28.8228 120.978 32.7607C120.978 36.6987 122.05 39.7792 124.194 42.0085ZM139.731 41.0041C138.053 42.9761 135.775 43.956 132.896 43.956C130.024 43.956 127.752 42.9761 126.092 41.0041C124.432 39.0382 123.6 36.2883 123.6 32.7607C123.6 29.2698 124.432 26.5384 126.092 24.5663C127.752 22.6004 130.024 21.6144 132.896 21.6144C135.775 21.6144 138.053 22.6004 139.731 24.5663C141.409 26.5384 142.248 29.2698 142.248 32.7607C142.248 36.2883 141.409 39.0382 139.731 41.0041ZM148.464 44.0111V44.8318H157.914V44.0111H157.247C156.493 44.0111 155.85 43.8887 155.318 43.6498C154.791 43.411 154.521 43.0312 154.521 42.5229V8H153.548L149.132 9.80056L149.389 10.6212C150.142 10.2783 150.724 10.1068 151.135 10.1068C151.649 10.1068 151.906 10.364 151.906 10.8784V42.5229C151.906 43.0312 151.637 43.411 151.11 43.6498C150.577 43.8887 149.934 44.0111 149.181 44.0111H148.464ZM164.412 42.1861C166.28 44.2929 168.871 45.3462 172.196 45.3462C176.41 45.3462 179.386 43.8703 181.132 40.9306L181.34 44.9359L186.631 44.2684V43.6008H185.651C185.002 43.6008 184.488 43.46 184.114 43.1905C183.734 42.9149 183.551 42.4862 183.551 41.9044V8H182.522L178.155 9.80056L178.412 10.6212C179.166 10.2783 179.748 10.1068 180.158 10.1068C180.672 10.1068 180.93 10.364 180.93 10.8784V24.1805C179.111 21.5103 176.22 20.1752 172.245 20.1752C170.194 20.1752 168.368 20.6284 166.776 21.5348C165.184 22.4412 163.922 23.8069 162.997 25.6197C162.073 27.4325 161.613 29.6434 161.613 32.2463C161.613 36.766 162.544 40.0793 164.412 42.1861ZM177.175 42.8781C175.944 43.6008 174.487 43.956 172.809 43.956C169.795 43.956 167.615 42.9149 166.262 40.8265C164.908 38.7381 164.235 35.927 164.235 32.3994C164.235 28.9085 165.006 26.2383 166.543 24.3887C168.087 22.5392 170.279 21.6144 173.121 21.6144C174.389 21.6144 175.626 21.8961 176.845 22.4596C178.057 23.023 179.043 23.8131 179.797 24.8236C180.55 25.8341 180.93 26.9548 180.93 28.1858V36.3067C180.93 37.6418 180.611 38.8912 179.98 40.0548C179.343 41.2184 178.412 42.1616 177.175 42.8781Z" fill="#E5D826"/>
</svg>
