<svg width="174" height="147" viewBox="0 0 174 147" fill="none" xmlns="http://www.w3.org/2000/svg">
<g clip-path="url(#clip0_2_3)">
<path d="M89.1191 0.617633L117.779 17.1647C118.48 17.5693 119.062 18.1513 119.467 18.8521C119.871 19.5529 120.084 20.3479 120.084 21.1571V54.2513C120.084 55.0605 119.871 55.8555 119.467 56.5563C119.062 57.2571 118.48 57.839 117.779 58.2436L89.1191 74.7907C88.4183 75.1953 87.6233 75.4083 86.8141 75.4083C86.0048 75.4083 85.2099 75.1953 84.509 74.7907L55.8489 58.2436C55.1481 57.839 54.5662 57.2571 54.1616 56.5563C53.757 55.8555 53.5439 55.0605 53.5439 54.2513V21.1571C53.5439 20.3479 53.757 19.5529 54.1616 18.8521C54.5662 18.1513 55.1481 17.5693 55.8489 17.1647L84.509 0.617633C85.2099 0.213014 86.0048 0 86.8141 0C87.6233 0 88.4183 0.213014 89.1191 0.617633Z" fill="#DDDE2F" stroke="white" stroke-width="1.22487"/>
<path d="M98.4749 20.1552H75.1532L66.2664 31.6345L86.8141 55.2532L107.362 31.6345L98.4749 20.1552ZM92.4463 32.8366L86.698 49.8553L80.9496 32.8366H92.4463ZM81.258 30.3369L86.4112 23.7872L91.5645 30.3375L81.258 30.3369ZM88.7019 22.6543H95.8867L93.7288 29.0436L88.7019 22.6543ZM79.4965 28.5333L77.5114 22.6543H84.1222L79.4965 28.5333ZM77.4672 30.3369L70.4325 30.3391L75.3288 24.0151L77.4655 30.3385L77.4672 30.3369ZM78.3112 32.8366L83.1858 47.2709L70.6264 32.8382H78.309L78.3112 32.8366ZM95.0869 32.8366H103.003L90.0622 47.7137L95.0869 32.8366ZM95.9304 30.3364L98.139 23.8002L103.199 30.3369L95.9304 30.3364Z" fill="white"/>
<path d="M173.628 85.6822H0V87.3945H173.628V85.6822Z" fill="#DBCD2D"/>
<path d="M35.1905 133.575H34.3698C33.7145 133.575 33.0408 133.404 32.3365 133.061C31.6384 132.718 31.1852 132.308 30.9769 131.83L18.4404 98.0787L16.4377 99.1566L4.26255 131.83C4.09719 132.308 3.63786 132.718 2.90294 133.061C2.16802 133.404 1.45759 133.575 0.771664 133.575H0V134.5H10.1235V133.575H9.35188C8.6292 133.575 7.93103 133.398 7.2451 133.036C6.55917 132.675 6.30195 132.222 6.47344 131.677L9.65809 122.993H24.7607L28.0985 132.136C28.2394 132.547 27.9576 132.889 27.2533 133.165C26.549 133.441 25.8386 133.575 25.1221 133.575H24.4545V134.5H35.1905V133.575ZM24.1973 121.455H10.2215L17.2645 102.445L24.1973 121.455ZM51.6037 110.278C51.0342 109.991 50.3237 109.844 49.4724 109.844C47.9965 109.844 46.7655 110.272 45.7733 111.13C44.7812 111.981 44.0402 113.028 43.5625 114.259V110.303H42.5887L38.1669 112.103L38.4241 112.924C39.1774 112.581 39.7592 112.41 40.1696 112.41C40.684 112.41 40.9412 112.667 40.9412 113.181V132.191C40.9412 132.7 40.6779 133.079 40.1451 133.318C39.6184 133.557 38.9753 133.68 38.222 133.68H37.4994V134.5H46.9553V133.68H46.2878C45.5345 133.68 44.8914 133.557 44.3586 133.318C43.8258 133.079 43.5625 132.7 43.5625 132.191V119.502C43.5992 117.034 44.0953 115.092 45.0507 113.671C46.0122 112.25 47.2983 111.54 48.9029 111.54C49.2459 111.54 49.5031 111.595 49.6746 111.718C49.846 111.84 49.9991 111.999 50.14 112.208C50.2747 112.41 50.4095 112.563 50.5503 112.667C50.6851 112.771 50.9117 112.82 51.2179 112.82C51.5915 112.82 51.8916 112.704 52.1182 112.465C52.3386 112.226 52.4489 111.895 52.4489 111.485C52.4489 110.97 52.1672 110.572 51.6037 110.278ZM70.5341 130.544H69.0948C68.954 131.603 68.5008 132.393 67.7352 132.908C66.9636 133.422 66.0633 133.68 65.0344 133.68C63.6319 133.68 62.6153 133.251 61.9784 132.393C61.3476 131.536 61.0291 130.17 61.0291 128.284V111.742H68.3232V110.358H61.0291V103.627H60.1043L58.3589 105.991V110.358H53.9371V111.742H58.3589V128.437C58.3589 130.764 58.8856 132.442 59.9512 133.471C61.0107 134.5 62.6582 135.015 64.8813 135.015C66.3205 135.015 67.5883 134.647 68.6845 133.912C69.7808 133.171 70.3932 132.05 70.5341 130.544ZM77.9568 130.213C80.7434 133.41 84.6752 135.015 89.7461 135.015C92.9614 135.015 95.5888 134.635 97.6282 133.882C99.6676 133.128 101.438 132.118 102.944 130.85V121.608C102.944 120.408 103.011 119.508 103.152 118.908C103.287 118.307 103.538 117.891 103.893 117.652C104.255 117.413 104.794 117.291 105.516 117.291H105.927V116.421H95.1907V117.291H95.8582C98.8347 117.291 100.329 118.167 100.329 119.912V130.391C99.0919 131.554 97.5547 132.369 95.7051 132.828C93.8556 133.294 92.055 133.526 90.3096 133.526C85.6857 133.526 82.2377 131.989 79.9594 128.927C77.6812 125.859 76.5421 121.725 76.5421 116.519C76.5421 111.387 77.7608 107.277 80.1922 104.191C82.6235 101.11 86.1328 99.5669 90.7199 99.5669C93.629 99.5669 96.0603 100.296 98.014 101.753C99.9677 103.205 101.064 105.134 101.303 107.529H102.228V98.2869H100.941V100.853C100.941 101.331 100.825 101.57 100.58 101.57C100.482 101.57 100.372 101.514 100.249 101.392C100.127 101.276 100.035 101.196 99.9677 101.159C98.7305 100.271 97.3832 99.524 95.9072 98.93C94.4374 98.3298 92.6062 98.0297 90.4137 98.0297C86.9902 98.0297 84.026 98.7463 81.5273 100.185C79.0224 101.625 77.1055 103.731 75.7704 106.506C74.4353 109.28 73.7677 112.618 73.7677 116.519C73.7677 122.447 75.1641 127.01 77.9568 130.213ZM111.194 131.677C113.331 133.9 116.234 135.015 119.896 135.015C123.565 135.015 126.455 133.9 128.581 131.677C130.7 129.448 131.765 126.367 131.765 122.429C131.765 118.491 130.7 115.411 128.581 113.181C126.455 110.958 123.565 109.844 119.896 109.844C116.234 109.844 113.331 110.958 111.194 113.181C109.05 115.411 107.978 118.491 107.978 122.429C107.978 126.367 109.05 129.448 111.194 131.677ZM126.731 130.672C125.053 132.645 122.775 133.624 119.896 133.624C117.024 133.624 114.752 132.645 113.092 130.672C111.432 128.707 110.6 125.957 110.6 122.429C110.6 118.938 111.432 116.207 113.092 114.235C114.752 112.269 117.024 111.283 119.896 111.283C122.775 111.283 125.053 112.269 126.731 114.235C128.409 116.207 129.248 118.938 129.248 122.429C129.248 125.957 128.409 128.707 126.731 130.672ZM135.464 133.68V134.5H144.914V133.68H144.247C143.493 133.68 142.85 133.557 142.318 133.318C141.791 133.079 141.521 132.7 141.521 132.191V97.6684H140.548L136.132 99.4689L136.389 100.29C137.142 99.9466 137.724 99.7751 138.135 99.7751C138.649 99.7751 138.906 100.032 138.906 100.547V132.191C138.906 132.7 138.637 133.079 138.11 133.318C137.577 133.557 136.934 133.68 136.181 133.68H135.464ZM151.412 131.854C153.28 133.961 155.871 135.015 159.196 135.015C163.41 135.015 166.386 133.539 168.132 130.599L168.34 134.604L173.631 133.937V133.269H172.651C172.002 133.269 171.488 133.128 171.114 132.859C170.734 132.583 170.551 132.155 170.551 131.573V97.6684H169.522L165.155 99.4689L165.412 100.29C166.166 99.9466 166.748 99.7751 167.158 99.7751C167.672 99.7751 167.93 100.032 167.93 100.547V113.849C166.111 111.179 163.22 109.844 159.245 109.844C157.194 109.844 155.368 110.297 153.776 111.203C152.184 112.11 150.922 113.475 149.997 115.288C149.073 117.101 148.613 119.312 148.613 121.915C148.613 126.434 149.544 129.748 151.412 131.854ZM164.175 132.547C162.944 133.269 161.487 133.624 159.809 133.624C156.795 133.624 154.615 132.583 153.262 130.495C151.908 128.406 151.235 125.595 151.235 122.068C151.235 118.577 152.006 115.907 153.543 114.057C155.087 112.208 157.279 111.283 160.121 111.283C161.389 111.283 162.626 111.565 163.845 112.128C165.057 112.691 166.043 113.481 166.797 114.492C167.55 115.502 167.93 116.623 167.93 117.854V125.975C167.93 127.31 167.611 128.56 166.98 129.723C166.343 130.887 165.412 131.83 164.175 132.547Z" fill="#E5D826"/>
<path d="M173.628 145.288H0V147H173.628V145.288Z" fill="#E3D635"/>
</g>
<defs>
<clipPath id="clip0_2_3">
<rect width="173.631" height="147" fill="white"/>
</clipPath>
</defs>
</svg>
